<svg width="682" height="180" viewBox="0 0 682 180" fill="none" xmlns="http://www.w3.org/2000/svg">
<path d="M6.4 101V30.5H40.3C48.3 30.5 54.4667 32.5667 58.8 36.7C63.2 40.7667 65.4 46.4 65.4 53.6C65.4 60.8 63.2 66.4667 58.8 70.6C54.4667 74.6667 48.3 76.7 40.3 76.7H24.8V101H6.4ZM24.8 62.6H37.1C44.3 62.6 47.9 59.6 47.9 53.6C47.9 47.6 44.3 44.6 37.1 44.6H24.8V62.6ZM72.2781 43.3V27.2H90.9781V43.3H72.2781ZM72.7781 101V51.8H90.5781V101H72.7781ZM119.303 102.1C112.903 102.1 108.17 100.367 105.103 96.9C102.103 93.3667 100.603 88 100.603 80.8V51.8H118.403V81.3C118.403 86.1 120.47 88.5 124.603 88.5C127.003 88.5 128.97 87.6333 130.503 85.9C132.036 84.1667 132.803 81.8667 132.803 79V51.8H150.603V101H133.203V94.9C130.003 99.7 125.37 102.1 119.303 102.1ZM160.962 119V51.8H178.262V58.5C179.595 56.1 181.628 54.2 184.362 52.8C187.095 51.4 190.095 50.7 193.362 50.7C197.562 50.7 201.262 51.7333 204.462 53.8C207.728 55.8667 210.262 58.8333 212.062 62.7C213.928 66.5 214.862 71.0667 214.862 76.4C214.862 81.6667 213.962 86.2333 212.162 90.1C210.362 93.9667 207.828 96.9333 204.562 99C201.362 101.067 197.628 102.1 193.362 102.1C190.295 102.1 187.428 101.467 184.762 100.2C182.162 98.9333 180.162 97.2333 178.762 95.1V119H160.962ZM187.762 89C190.428 89 192.628 88 194.362 86C196.095 84 196.962 80.8 196.962 76.4C196.962 71.9333 196.095 68.7333 194.362 66.8C192.628 64.8 190.428 63.8 187.762 63.8C185.028 63.8 182.795 64.8 181.062 66.8C179.328 68.7333 178.462 71.9333 178.462 76.4C178.462 80.8 179.328 84 181.062 86C182.795 88 185.028 89 187.762 89ZM222.473 43.3V27.2H241.173V43.3H222.473ZM222.973 101V51.8H240.773V101H222.973ZM269.498 102.1C263.098 102.1 258.365 100.367 255.298 96.9C252.298 93.3667 250.798 88 250.798 80.8V51.8H268.598V81.3C268.598 86.1 270.665 88.5 274.798 88.5C277.198 88.5 279.165 87.6333 280.698 85.9C282.232 84.1667 282.998 81.8667 282.998 79V51.8H300.798V101H283.398V94.9C280.198 99.7 275.565 102.1 269.498 102.1ZM325.257 101L304.557 51.8H322.557L333.457 80.3L344.257 51.8H355.357L366.257 80.8L377.157 51.8H394.057L373.557 101H358.857L349.157 76.8L339.957 101H325.257ZM423.504 102.1C417.504 102.1 412.304 101.067 407.904 99C403.571 96.8667 400.237 93.8667 397.904 90C395.571 86.1333 394.404 81.5667 394.404 76.3C394.404 71.3 395.504 66.8667 397.704 63C399.971 59.1333 403.037 56.1333 406.904 54C410.837 51.8 415.304 50.7 420.304 50.7C425.237 50.7 429.504 51.7333 433.104 53.8C436.771 55.8667 439.571 58.8333 441.504 62.7C443.504 66.5 444.504 70.9667 444.504 76.1V80H411.404C412.004 83.2 413.337 85.5 415.404 86.9C417.471 88.3 420.337 89 424.004 89C426.537 89 429.171 88.6333 431.904 87.9C434.704 87.1 437.171 85.9667 439.304 84.5L443.704 96.2C441.171 98 438.071 99.4333 434.404 100.5C430.737 101.567 427.104 102.1 423.504 102.1ZM421.104 62.2C418.437 62.2 416.237 63 414.504 64.6C412.837 66.2 411.771 68.5333 411.304 71.6H429.904C429.704 68.4667 428.837 66.1333 427.304 64.6C425.837 63 423.771 62.2 421.104 62.2ZM452.173 101V51.8H469.473V60.1C471.739 54.4333 476.639 51.3333 484.173 50.8L489.073 50.4L490.073 65.4L480.373 66.3C476.839 66.6333 474.273 67.6333 472.673 69.3C471.073 70.9 470.273 73.3 470.273 76.5V101H452.173Z" fill="#293241"/>
<path d="M500.945 122.133C507.692 116.372 513.939 110.051 519.62 103.237C528.055 97.4366 536.532 94.4662 544.17 94.651C551.06 94.8182 557.001 97.4976 561.347 102.4C566.843 108.597 569.175 117.584 567.918 127.707C566.476 139.315 560.452 151.362 550.497 162.545C550.285 162.779 550.121 163.053 550.015 163.35C549.908 163.648 549.862 163.963 549.879 164.279C549.896 164.594 549.975 164.903 550.112 165.188C550.249 165.473 550.441 165.728 550.677 165.938C550.913 166.148 551.188 166.309 551.486 166.412C551.785 166.515 552.101 166.557 552.417 166.537C552.732 166.517 553.04 166.435 553.323 166.295C553.606 166.155 553.859 165.961 554.067 165.722C564.668 153.812 571.098 140.87 572.661 128.296C574.091 116.792 571.343 106.469 564.925 99.2295C559.75 93.3937 552.42 90.07 544.288 89.8733C538.745 89.7431 532.864 91.0386 526.912 93.6633C535.793 80.8843 543.449 65.0938 545.876 46.8198C545.936 46.3695 545.866 45.9115 545.675 45.4995C545.483 45.0874 545.179 44.7384 544.796 44.4933L534.547 37.9252L538.94 35.9738C539.28 35.8226 539.581 35.5938 539.817 35.3058C540.053 35.0177 540.219 34.6784 540.301 34.3149C540.383 33.9515 540.378 33.5739 540.288 33.2123C540.198 32.8508 540.025 32.5154 539.782 32.2328L537.254 29.2914L543.248 28.6682C543.654 28.6259 544.043 28.4803 544.377 28.2453C544.71 28.0103 544.978 27.6936 545.155 27.3256C545.332 26.9575 545.411 26.5504 545.386 26.1429C545.36 25.7354 545.231 25.3413 545.01 24.998L544.413 24.0685C549.556 26.3206 555.81 28.7088 558.847 28.5328C560.019 28.4639 561.51 27.8589 563.981 26.8566C568.463 25.0382 575.524 22.1745 584.027 21.339C576.559 24.9152 571.856 31.0082 570.344 39.1402C570.264 39.5596 569.999 40.5659 569.208 40.8618L561.249 43.8354C560.459 44.13 559.769 44.6429 559.259 45.3144C558.749 45.986 558.441 46.7885 558.369 47.6286C558.298 48.4687 558.466 49.3118 558.855 50.0598C559.245 50.8078 559.838 51.4298 560.567 51.8536L564.236 53.9885L561.421 59.6554C561.069 60.3664 560.912 61.1586 560.969 61.9503C561.025 62.7419 561.292 63.5041 561.742 64.1579C562.191 64.8118 562.808 65.3335 563.527 65.6692C564.246 66.0049 565.042 66.1422 565.832 66.0671L571.042 65.5748C571.469 65.5327 571.896 65.653 572.238 65.9118C572.579 66.1705 572.811 66.5486 572.886 66.9707C573.596 71.2131 575.717 77.8382 581.789 85.3059C588.795 93.9206 599.327 101.521 613.088 107.915C613.201 108.921 613.332 109.932 613.5 110.953C615.372 122.298 613.266 135.569 607.726 147.362C601.899 159.766 592.764 169.735 582.002 175.431C581.441 175.728 581.022 176.234 580.835 176.84C580.649 177.446 580.711 178.101 581.007 178.661C581.304 179.221 581.811 179.641 582.416 179.827C583.022 180.013 583.677 179.952 584.237 179.655C595.909 173.477 605.787 162.73 612.051 149.394C618.079 136.56 620.268 122.632 618.214 110.176C614.645 88.5169 625.313 69.9539 627.709 66.1228L680.2 52.7819C680.707 52.6527 681.158 52.3604 681.484 51.9498C681.809 51.5393 681.99 51.0332 682 50.5096C682.009 49.9859 681.846 49.4736 681.536 49.0515C681.226 48.6294 680.786 48.3209 680.283 48.1734L625.856 32.2149C614.695 21.554 602.075 16.2057 588.356 16.3252C576.984 16.4239 567.718 20.1829 562.182 22.429C560.705 23.0263 559.032 23.7069 558.564 23.7627C555.759 23.9319 545.422 19.4697 538.976 16.2515C538.507 16.0177 537.975 15.9442 537.461 16.0423C536.947 16.1404 536.479 16.4047 536.13 16.7946C535.78 17.1844 535.568 17.6782 535.527 18.2001C535.485 18.7219 535.616 19.243 535.9 19.6831L538.887 24.3178L532.219 25.0111C531.786 25.0563 531.372 25.2193 531.025 25.4825C530.677 25.7458 530.408 26.0992 530.246 26.5044C530.085 26.9097 530.038 27.3514 530.11 27.7816C530.182 28.2118 530.37 28.6141 530.654 28.9449L534.063 32.9118L528.55 35.3609C528.156 35.5362 527.816 35.8148 527.568 36.1674C527.319 36.52 527.171 36.9333 527.138 37.3635C527.105 37.7937 527.19 38.2247 527.382 38.6108C527.575 38.9969 527.868 39.3236 528.231 39.5564L540.925 47.6908C537.739 68.887 527.171 86.5807 516.279 99.7862C516.189 99.8781 516.106 99.9772 516.032 100.083C510.502 106.726 504.417 112.888 497.842 118.5C497.603 118.704 497.406 118.952 497.263 119.232C497.119 119.512 497.033 119.817 497.008 120.13C496.983 120.444 497.019 120.759 497.116 121.058C497.213 121.357 497.368 121.634 497.572 121.873C497.776 122.112 498.026 122.308 498.306 122.451C498.586 122.593 498.891 122.679 499.205 122.703C499.518 122.728 499.833 122.69 500.132 122.592C500.43 122.495 500.707 122.339 500.945 122.135L500.945 122.133ZM627.206 61.3193L621.595 53.4553L659.697 53.0618L627.206 61.3193ZM625.943 37.2183L663.537 48.2435L620.72 48.6852L625.943 37.2183ZM588.851 24.513C590.729 23.8664 592.662 23.3893 594.625 23.0873C598.272 22.515 602.006 22.9391 605.431 24.3146C610.764 26.4567 616.259 29.8318 621.746 34.9038L614.813 50.1228C614.639 50.5046 614.569 50.9254 614.609 51.3429C614.649 51.7605 614.799 52.1601 615.042 52.5015L623.323 64.1053C620.493 68.6966 612.297 83.67 612.712 102.439C600.976 96.6294 580.596 84.1164 577.597 66.1818C577.318 64.5699 576.442 63.1223 575.143 62.1279C573.844 61.1334 572.218 60.6652 570.59 60.8167L565.959 61.2548L568.649 55.8387C569.15 54.8264 569.248 53.662 568.923 52.5804C568.599 51.4988 567.876 50.5805 566.901 50.0109L563.564 48.0699L570.877 45.3376C573.044 44.5284 574.56 42.5878 575.039 40.0132C576.448 32.4363 581.096 27.2214 588.851 24.513Z" fill="#EE6C4D"/>
<path d="M500.945 122.133C507.692 116.372 513.939 110.051 519.62 103.237C528.055 97.4366 536.532 94.4662 544.17 94.651C551.06 94.8182 557.001 97.4976 561.347 102.4C566.843 108.597 569.175 117.584 567.918 127.707C566.476 139.315 560.452 151.362 550.497 162.545C550.285 162.779 550.121 163.053 550.015 163.35C549.908 163.648 549.862 163.963 549.879 164.279C549.896 164.594 549.975 164.903 550.112 165.188C550.249 165.473 550.441 165.728 550.677 165.938C550.913 166.148 551.188 166.309 551.486 166.412C551.785 166.515 552.101 166.557 552.417 166.537C552.732 166.517 553.04 166.435 553.323 166.295C553.606 166.155 553.859 165.961 554.067 165.722C564.668 153.812 571.098 140.87 572.661 128.296C574.091 116.792 571.343 106.469 564.925 99.2295C559.75 93.3937 552.42 90.07 544.288 89.8733C538.745 89.7431 532.864 91.0386 526.912 93.6633C535.793 80.8843 543.449 65.0938 545.876 46.8198C545.936 46.3695 545.866 45.9115 545.675 45.4995C545.483 45.0874 545.179 44.7384 544.796 44.4933L534.547 37.9252L538.94 35.9738C539.28 35.8226 539.581 35.5938 539.817 35.3058C540.053 35.0177 540.219 34.6784 540.301 34.3149C540.383 33.9515 540.378 33.5739 540.288 33.2123C540.198 32.8508 540.025 32.5154 539.782 32.2328L537.254 29.2914L543.248 28.6682C543.654 28.6259 544.043 28.4803 544.377 28.2453C544.71 28.0103 544.978 27.6936 545.155 27.3256C545.332 26.9575 545.411 26.5504 545.386 26.1429C545.36 25.7354 545.231 25.3413 545.01 24.998L544.413 24.0685C549.556 26.3206 555.81 28.7088 558.847 28.5328C560.019 28.4639 561.51 27.8589 563.981 26.8566C568.463 25.0382 575.524 22.1745 584.027 21.339C576.559 24.9152 571.856 31.0082 570.344 39.1402C570.264 39.5596 569.999 40.5659 569.208 40.8618L561.249 43.8354C560.459 44.13 559.769 44.6429 559.259 45.3144C558.749 45.986 558.441 46.7885 558.369 47.6286C558.298 48.4687 558.466 49.3118 558.855 50.0598C559.245 50.8078 559.838 51.4298 560.567 51.8536L564.236 53.9885L561.421 59.6554C561.069 60.3664 560.912 61.1586 560.969 61.9503C561.025 62.7419 561.292 63.5041 561.742 64.1579C562.191 64.8118 562.808 65.3335 563.527 65.6692C564.246 66.0049 565.042 66.1422 565.832 66.0671L571.042 65.5748C571.469 65.5327 571.896 65.653 572.238 65.9118C572.579 66.1705 572.811 66.5486 572.886 66.9707C573.596 71.2131 575.717 77.8382 581.789 85.3059C588.795 93.9206 599.327 101.521 613.088 107.915C613.201 108.921 613.332 109.932 613.5 110.953C615.372 122.298 613.266 135.569 607.726 147.362C601.899 159.766 592.764 169.735 582.002 175.431C581.441 175.728 581.022 176.234 580.835 176.84C580.649 177.446 580.711 178.101 581.007 178.661C581.304 179.221 581.811 179.641 582.416 179.827C583.022 180.013 583.677 179.952 584.237 179.655C595.909 173.477 605.787 162.73 612.051 149.394C618.079 136.56 620.268 122.632 618.214 110.176C614.645 88.5169 625.313 69.9539 627.709 66.1228L680.2 52.7819C680.707 52.6527 681.158 52.3604 681.484 51.9498C681.809 51.5393 681.99 51.0332 682 50.5096C682.009 49.9859 681.846 49.4736 681.536 49.0515C681.226 48.6294 680.786 48.3209 680.283 48.1734L625.856 32.2149C614.695 21.554 602.075 16.2057 588.356 16.3252C576.984 16.4239 567.718 20.1829 562.182 22.429C560.705 23.0263 559.032 23.7069 558.564 23.7627C555.759 23.9319 545.422 19.4697 538.976 16.2515C538.507 16.0177 537.975 15.9442 537.461 16.0423C536.947 16.1404 536.479 16.4047 536.13 16.7946C535.78 17.1844 535.568 17.6782 535.527 18.2001C535.485 18.7219 535.616 19.243 535.9 19.6831L538.887 24.3178L532.219 25.0111C531.786 25.0563 531.372 25.2193 531.025 25.4825C530.677 25.7458 530.408 26.0992 530.246 26.5044C530.085 26.9097 530.038 27.3514 530.11 27.7816C530.182 28.2118 530.37 28.6141 530.654 28.9449L534.063 32.9118L528.55 35.3609C528.156 35.5362 527.816 35.8148 527.568 36.1674C527.319 36.52 527.171 36.9333 527.138 37.3635C527.105 37.7937 527.19 38.2247 527.382 38.6108C527.575 38.9969 527.868 39.3236 528.231 39.5564L540.925 47.6908C537.739 68.887 527.171 86.5807 516.279 99.7862C516.189 99.8781 516.106 99.9772 516.032 100.083C510.502 106.726 504.417 112.888 497.842 118.5C497.603 118.704 497.406 118.952 497.263 119.232C497.119 119.512 497.033 119.817 497.008 120.13C496.983 120.444 497.019 120.759 497.116 121.058C497.213 121.357 497.368 121.634 497.572 121.873C497.776 122.112 498.026 122.308 498.306 122.451C498.586 122.593 498.891 122.679 499.205 122.703C499.518 122.728 499.833 122.69 500.132 122.592C500.43 122.495 500.707 122.339 500.945 122.135L500.945 122.133ZM627.206 61.3193L621.595 53.4553L659.697 53.0618L627.206 61.3193ZM625.943 37.2183L663.537 48.2435L620.72 48.6852L625.943 37.2183ZM588.851 24.513C590.729 23.8664 592.662 23.3893 594.625 23.0873C598.272 22.515 602.006 22.9391 605.431 24.3146C610.764 26.4567 616.259 29.8318 621.746 34.9038L614.813 50.1228C614.639 50.5046 614.569 50.9254 614.609 51.3429C614.649 51.7605 614.799 52.1601 615.042 52.5015L623.323 64.1053C620.493 68.6966 612.297 83.67 612.712 102.439C600.976 96.6294 580.596 84.1164 577.597 66.1818C577.318 64.5699 576.442 63.1223 575.143 62.1279C573.844 61.1334 572.218 60.6652 570.59 60.8167L565.959 61.2548L568.649 55.8387C569.15 54.8264 569.248 53.662 568.923 52.5804C568.599 51.4988 567.876 50.5805 566.901 50.0109L563.564 48.0699L570.877 45.3376C573.044 44.5284 574.56 42.5878 575.039 40.0132C576.448 32.4363 581.096 27.2214 588.851 24.513Z" fill="#EE6C4D"/>
<path d="M599.854 52.7349C601.401 52.7332 602.912 52.2729 604.198 51.4123C605.483 50.5517 606.484 49.3295 607.075 47.9C607.665 46.4705 607.819 44.8979 607.516 43.3812C607.213 41.8644 606.468 40.4714 605.373 39.3783C604.279 38.2853 602.885 37.5412 601.368 37.2401C599.851 36.9391 598.278 37.0945 596.85 37.6869C595.421 38.2793 594.2 39.2819 593.341 40.5681C592.482 41.8543 592.023 43.3664 592.023 44.9131C592.027 46.988 592.853 48.9769 594.321 50.4432C595.789 51.9096 597.779 52.7337 599.854 52.7349ZM599.854 41.8698C600.456 41.8715 601.043 42.0515 601.543 42.3869C602.042 42.7224 602.431 43.1983 602.66 43.7545C602.889 44.3108 602.948 44.9224 602.829 45.5122C602.711 46.1019 602.42 46.6434 601.994 47.0681C601.568 47.4929 601.026 47.7819 600.436 47.8986C599.846 48.0153 599.234 47.9545 598.679 47.7239C598.123 47.4933 597.648 47.1032 597.314 46.603C596.98 46.1027 596.802 45.5146 596.802 44.9131C596.804 44.1051 597.127 43.3309 597.699 42.7604C598.271 42.1898 599.046 41.8695 599.854 41.8698Z" fill="#EE6C4D"/>
<path d="M603.675 124.063C601.61 135.703 596.583 146.615 589.077 155.748C588.672 156.235 588.477 156.864 588.534 157.495C588.592 158.126 588.898 158.708 589.385 159.113C589.872 159.519 590.501 159.714 591.132 159.656C591.763 159.599 592.345 159.293 592.751 158.805C600.786 149.03 606.169 137.35 608.382 124.89C608.487 124.268 608.342 123.629 607.978 123.114C607.614 122.598 607.061 122.248 606.439 122.138C605.817 122.029 605.178 122.171 604.66 122.531C604.142 122.892 603.788 123.443 603.675 124.064V124.063Z" fill="#EE6C4D"/>
<path d="M606.908 117.688H606.981C607.602 117.688 608.199 117.446 608.644 117.013C609.09 116.58 609.349 115.991 609.368 115.37C609.406 114.122 609.406 112.868 609.368 111.643C609.361 111.328 609.292 111.017 609.164 110.728C609.037 110.44 608.853 110.18 608.624 109.962C608.395 109.745 608.126 109.575 607.831 109.463C607.536 109.35 607.222 109.297 606.907 109.307C606.591 109.317 606.281 109.389 605.993 109.519C605.706 109.649 605.447 109.835 605.232 110.066C605.017 110.296 604.849 110.567 604.739 110.863C604.63 111.159 604.579 111.473 604.592 111.789C604.626 112.918 604.626 114.074 604.592 115.227C604.582 115.54 604.634 115.853 604.746 116.146C604.857 116.44 605.025 116.709 605.24 116.937C605.455 117.166 605.713 117.35 605.999 117.479C606.285 117.608 606.594 117.679 606.908 117.688Z" fill="#EE6C4D"/>
</svg>
