<svg width="506" height="582" viewBox="0 0 506 582" fill="none" xmlns="http://www.w3.org/2000/svg">
<circle cx="200" cy="200" r="200" fill="#98C1D9"/>
<path d="M22.6768 332.529C35.8056 321.319 47.9622 309.018 59.0164 295.758C75.4322 284.471 91.9262 278.691 106.791 279.051C120.197 279.376 131.759 284.59 140.216 294.129C150.911 306.188 155.448 323.678 153.003 343.376C150.196 365.964 138.474 389.408 119.103 411.169C118.689 411.624 118.37 412.156 118.164 412.735C117.957 413.314 117.867 413.929 117.9 414.543C117.932 415.157 118.086 415.758 118.353 416.312C118.619 416.866 118.992 417.362 119.452 417.77C119.911 418.179 120.447 418.493 121.028 418.693C121.609 418.893 122.224 418.977 122.838 418.938C123.451 418.899 124.051 418.739 124.602 418.466C125.153 418.194 125.645 417.815 126.049 417.352C146.679 394.175 159.191 368.991 162.232 344.523C165.014 322.135 159.668 302.047 147.178 287.96C137.108 276.604 122.844 270.136 107.019 269.753C96.2341 269.5 84.7897 272.021 73.2081 277.129C90.4894 252.261 105.386 221.534 110.11 185.974C110.226 185.097 110.09 184.206 109.718 183.404C109.346 182.603 108.753 181.923 108.009 181.446L88.0639 168.665L96.6123 164.868C97.2749 164.574 97.8595 164.129 98.3194 163.568C98.7793 163.008 99.1018 162.347 99.261 161.64C99.4203 160.933 99.4119 160.198 99.2366 159.494C99.0613 158.791 98.7239 158.138 98.2513 157.588L93.332 151.864L104.996 150.652C105.787 150.569 106.543 150.286 107.192 149.829C107.842 149.371 108.363 148.755 108.707 148.039C109.051 147.323 109.206 146.53 109.156 145.738C109.107 144.945 108.855 144.178 108.425 143.51L107.262 141.701C117.272 146.083 129.441 150.731 135.35 150.388C137.631 150.254 140.533 149.077 145.342 147.126C154.063 143.588 167.804 138.015 184.349 136.389C169.818 143.348 160.665 155.205 157.723 171.03C157.568 171.846 157.053 173.804 155.512 174.38L140.025 180.166C138.488 180.739 137.145 181.738 136.153 183.044C135.161 184.351 134.56 185.913 134.421 187.548C134.282 189.182 134.61 190.823 135.367 192.279C136.125 193.734 137.28 194.945 138.698 195.769L145.838 199.924L140.361 210.951C139.674 212.335 139.37 213.876 139.48 215.417C139.589 216.957 140.108 218.44 140.984 219.713C141.859 220.985 143.058 222 144.458 222.654C145.857 223.307 147.406 223.574 148.943 223.428L159.083 222.47C159.913 222.388 160.743 222.622 161.408 223.126C162.073 223.629 162.524 224.365 162.671 225.186C164.052 233.442 168.178 246.334 179.995 260.866C193.628 277.629 214.123 292.419 240.902 304.863C241.122 306.818 241.375 308.786 241.703 310.774C245.345 332.85 241.246 358.674 230.466 381.624C219.129 405.762 201.351 425.16 180.408 436.244C179.318 436.821 178.502 437.808 178.139 438.986C177.776 440.165 177.897 441.439 178.474 442.529C179.051 443.62 180.037 444.436 181.216 444.799C182.394 445.161 183.669 445.041 184.759 444.464C207.472 432.442 226.694 411.529 238.883 385.577C250.612 360.604 254.872 333.501 250.877 309.261C243.93 267.114 264.689 230.991 269.353 223.536L371.497 197.575C372.484 197.324 373.362 196.755 373.995 195.956C374.628 195.157 374.981 194.173 374.999 193.154C375.018 192.135 374.701 191.138 374.097 190.316C373.494 189.495 372.637 188.895 371.66 188.608L265.746 157.553C244.028 136.808 219.471 126.4 192.773 126.633C170.644 126.825 152.613 134.14 141.84 138.51C138.967 139.673 135.711 140.997 134.8 141.106C129.342 141.435 109.227 132.752 96.6828 126.489C95.7713 126.034 94.7356 125.891 93.735 126.082C92.7343 126.273 91.824 126.788 91.144 127.546C90.4641 128.305 90.052 129.266 89.9713 130.281C89.8905 131.297 90.1456 132.311 90.6971 133.167L96.5092 142.186L83.535 143.535C82.6908 143.623 81.8868 143.94 81.21 144.452C80.5333 144.965 80.0096 145.652 79.6959 146.441C79.3821 147.23 79.2902 148.089 79.4301 148.926C79.57 149.763 79.9364 150.546 80.4895 151.19L87.1223 158.909L76.3947 163.675C75.6275 164.016 74.9669 164.559 74.4831 165.245C73.9993 165.931 73.7102 166.735 73.6467 167.572C73.5831 168.409 73.7474 169.248 74.122 169.999C74.4967 170.751 75.0678 171.387 75.7747 171.839L100.475 187.669C94.2758 228.915 73.7102 263.346 52.5154 289.044C52.3399 289.222 52.1795 289.415 52.0357 289.62C41.2737 302.548 29.4322 314.538 16.6391 325.46C16.1731 325.856 15.7897 326.34 15.511 326.884C15.2323 327.429 15.0637 328.023 15.0148 328.632C14.966 329.242 15.0379 329.855 15.2265 330.437C15.415 331.019 15.7165 331.557 16.1136 332.023C16.5107 332.488 16.9957 332.87 17.5407 333.147C18.0857 333.425 18.6801 333.592 19.2899 333.639C19.8996 333.686 20.5127 333.613 21.094 333.423C21.6753 333.233 22.2134 332.93 22.6775 332.532L22.6768 332.529ZM268.374 214.189L257.455 198.886L331.6 198.12L268.374 214.189ZM265.917 167.29L339.072 188.744L255.753 189.604L265.917 167.29ZM193.737 142.566C197.392 141.308 201.153 140.379 204.973 139.791C212.07 138.678 219.336 139.503 226.002 142.18C236.379 146.348 247.072 152.916 257.749 162.786L244.257 192.401C243.919 193.144 243.782 193.963 243.86 194.775C243.939 195.588 244.23 196.366 244.704 197.03L260.819 219.61C255.311 228.545 239.362 257.682 240.169 294.206C217.332 282.9 177.674 258.551 171.837 223.651C171.294 220.514 169.59 217.697 167.062 215.762C164.535 213.827 161.371 212.916 158.201 213.211L149.191 214.063L154.426 203.524C155.4 201.554 155.59 199.288 154.958 197.183C154.327 195.079 152.92 193.292 151.023 192.183L144.531 188.406L158.76 183.089C162.977 181.515 165.928 177.738 166.86 172.728C169.602 157.984 178.645 147.836 193.737 142.566Z" fill="#EE6C4D"/>
<path d="M22.6768 332.529C35.8056 321.319 47.9622 309.018 59.0164 295.758C75.4322 284.471 91.9262 278.691 106.791 279.051C120.197 279.376 131.759 284.59 140.216 294.129C150.911 306.188 155.448 323.678 153.003 343.376C150.196 365.964 138.474 389.408 119.103 411.169C118.689 411.624 118.37 412.156 118.164 412.735C117.957 413.314 117.867 413.929 117.9 414.543C117.932 415.157 118.086 415.758 118.353 416.312C118.619 416.866 118.992 417.362 119.452 417.77C119.911 418.179 120.447 418.493 121.028 418.693C121.609 418.893 122.224 418.977 122.838 418.938C123.451 418.899 124.051 418.739 124.602 418.466C125.153 418.194 125.645 417.815 126.049 417.352C146.679 394.175 159.191 368.991 162.232 344.523C165.014 322.135 159.668 302.047 147.178 287.96C137.108 276.604 122.844 270.136 107.019 269.753C96.2341 269.5 84.7897 272.021 73.2081 277.129C90.4894 252.261 105.386 221.534 110.11 185.974C110.226 185.097 110.09 184.206 109.718 183.404C109.346 182.603 108.753 181.923 108.009 181.446L88.0639 168.665L96.6123 164.868C97.2749 164.574 97.8595 164.129 98.3194 163.568C98.7793 163.008 99.1018 162.347 99.261 161.64C99.4203 160.933 99.4119 160.198 99.2366 159.494C99.0613 158.791 98.7239 158.138 98.2513 157.588L93.332 151.864L104.996 150.652C105.787 150.569 106.543 150.286 107.192 149.829C107.842 149.371 108.363 148.755 108.707 148.039C109.051 147.323 109.206 146.53 109.156 145.738C109.107 144.945 108.855 144.178 108.425 143.51L107.262 141.701C117.272 146.083 129.441 150.731 135.35 150.388C137.631 150.254 140.533 149.077 145.342 147.126C154.063 143.588 167.804 138.015 184.349 136.389C169.818 143.348 160.665 155.205 157.723 171.03C157.568 171.846 157.053 173.804 155.512 174.38L140.025 180.166C138.488 180.739 137.145 181.738 136.153 183.044C135.161 184.351 134.56 185.913 134.421 187.548C134.282 189.182 134.61 190.823 135.367 192.279C136.125 193.734 137.28 194.945 138.698 195.769L145.838 199.924L140.361 210.951C139.674 212.335 139.37 213.876 139.48 215.417C139.589 216.957 140.108 218.44 140.984 219.713C141.859 220.985 143.058 222 144.458 222.654C145.857 223.307 147.406 223.574 148.943 223.428L159.083 222.47C159.913 222.388 160.743 222.622 161.408 223.126C162.073 223.629 162.524 224.365 162.671 225.186C164.052 233.442 168.178 246.334 179.995 260.866C193.628 277.629 214.123 292.419 240.902 304.863C241.122 306.818 241.375 308.786 241.703 310.774C245.345 332.85 241.246 358.674 230.466 381.624C219.129 405.762 201.351 425.16 180.408 436.244C179.318 436.821 178.502 437.808 178.139 438.986C177.776 440.165 177.897 441.439 178.474 442.529C179.051 443.62 180.037 444.436 181.216 444.799C182.394 445.161 183.669 445.041 184.759 444.464C207.472 432.442 226.694 411.529 238.883 385.577C250.612 360.604 254.872 333.501 250.877 309.261C243.93 267.114 264.689 230.991 269.353 223.536L371.497 197.575C372.484 197.324 373.362 196.755 373.995 195.956C374.628 195.157 374.981 194.173 374.999 193.154C375.018 192.135 374.701 191.138 374.097 190.316C373.494 189.495 372.637 188.895 371.66 188.608L265.746 157.553C244.028 136.808 219.471 126.4 192.773 126.633C170.644 126.825 152.613 134.14 141.84 138.51C138.967 139.673 135.711 140.997 134.8 141.106C129.342 141.435 109.227 132.752 96.6828 126.489C95.7713 126.034 94.7356 125.891 93.735 126.082C92.7343 126.273 91.824 126.788 91.144 127.546C90.4641 128.305 90.052 129.266 89.9713 130.281C89.8905 131.297 90.1456 132.311 90.6971 133.167L96.5092 142.186L83.535 143.535C82.6908 143.623 81.8868 143.94 81.21 144.452C80.5333 144.965 80.0096 145.652 79.6959 146.441C79.3821 147.23 79.2902 148.089 79.4301 148.926C79.57 149.763 79.9364 150.546 80.4895 151.19L87.1223 158.909L76.3947 163.675C75.6275 164.016 74.9669 164.559 74.4831 165.245C73.9993 165.931 73.7102 166.735 73.6467 167.572C73.5831 168.409 73.7474 169.248 74.122 169.999C74.4967 170.751 75.0678 171.387 75.7747 171.839L100.475 187.669C94.2758 228.915 73.7102 263.346 52.5154 289.044C52.3399 289.222 52.1795 289.415 52.0357 289.62C41.2737 302.548 29.4322 314.538 16.6391 325.46C16.1731 325.856 15.7897 326.34 15.511 326.884C15.2323 327.429 15.0637 328.023 15.0148 328.632C14.966 329.242 15.0379 329.855 15.2265 330.437C15.415 331.019 15.7165 331.557 16.1136 332.023C16.5107 332.488 16.9957 332.87 17.5407 333.147C18.0857 333.425 18.6801 333.592 19.2899 333.639C19.8996 333.686 20.5127 333.613 21.094 333.423C21.6753 333.233 22.2134 332.93 22.6775 332.532L22.6768 332.529ZM268.374 214.189L257.455 198.886L331.6 198.12L268.374 214.189ZM265.917 167.29L339.072 188.744L255.753 189.604L265.917 167.29ZM193.737 142.566C197.392 141.308 201.153 140.379 204.973 139.791C212.07 138.678 219.336 139.503 226.002 142.18C236.379 146.348 247.072 152.916 257.749 162.786L244.257 192.401C243.919 193.144 243.782 193.963 243.86 194.775C243.939 195.588 244.23 196.366 244.704 197.03L260.819 219.61C255.311 228.545 239.362 257.682 240.169 294.206C217.332 282.9 177.674 258.551 171.837 223.651C171.294 220.514 169.59 217.697 167.062 215.762C164.535 213.827 161.371 212.916 158.201 213.211L149.191 214.063L154.426 203.524C155.4 201.554 155.59 199.288 154.958 197.183C154.327 195.079 152.92 193.292 151.023 192.183L144.531 188.406L158.76 183.089C162.977 181.515 165.928 177.738 166.86 172.728C169.602 157.984 178.645 147.836 193.737 142.566Z" fill="#EE6C4D"/>
<path d="M215.149 197.484C218.158 197.481 221.1 196.585 223.601 194.91C226.102 193.236 228.05 190.857 229.199 188.076C230.349 185.294 230.648 182.234 230.059 179.282C229.469 176.331 228.018 173.62 225.889 171.493C223.759 169.366 221.047 167.918 218.094 167.332C215.142 166.746 212.082 167.049 209.302 168.201C206.522 169.354 204.145 171.305 202.474 173.808C200.802 176.311 199.91 179.253 199.91 182.263C199.917 186.301 201.525 190.171 204.382 193.025C207.239 195.878 211.111 197.482 215.149 197.484ZM215.149 176.341C216.319 176.344 217.462 176.695 218.434 177.347C219.406 178 220.162 178.926 220.608 180.009C221.053 181.091 221.168 182.281 220.938 183.429C220.707 184.577 220.142 185.63 219.313 186.457C218.484 187.283 217.429 187.846 216.281 188.073C215.132 188.3 213.942 188.182 212.861 187.733C211.78 187.284 210.856 186.525 210.206 185.552C209.556 184.578 209.209 183.434 209.209 182.263C209.214 180.691 209.841 179.184 210.955 178.074C212.068 176.964 213.576 176.341 215.149 176.341Z" fill="#EE6C4D"/>
<path d="M222.584 336.284C218.565 358.935 208.783 380.169 194.178 397.942C193.389 398.89 193.009 400.113 193.121 401.341C193.234 402.569 193.829 403.702 194.777 404.491C195.725 405.28 196.948 405.66 198.176 405.548C199.404 405.435 200.537 404.84 201.326 403.892C216.962 384.869 227.438 362.14 231.743 337.895C231.948 336.684 231.666 335.441 230.957 334.438C230.249 333.434 229.172 332.752 227.963 332.54C226.753 332.327 225.509 332.602 224.501 333.304C223.493 334.006 222.804 335.078 222.584 336.287V336.284Z" fill="#EE6C4D"/>
<path d="M228.875 323.88H229.017C230.226 323.879 231.387 323.408 232.254 322.566C233.121 321.724 233.626 320.578 233.662 319.37C233.736 316.94 233.736 314.501 233.662 312.117C233.649 311.503 233.514 310.898 233.265 310.336C233.017 309.775 232.66 309.268 232.214 308.846C231.769 308.423 231.244 308.093 230.671 307.874C230.097 307.655 229.486 307.552 228.872 307.571C228.258 307.589 227.655 307.729 227.095 307.983C226.536 308.236 226.032 308.597 225.614 309.046C225.195 309.495 224.869 310.023 224.655 310.598C224.441 311.174 224.343 311.786 224.367 312.4C224.434 314.597 224.434 316.847 224.367 319.09C224.349 319.7 224.45 320.308 224.667 320.88C224.883 321.451 225.21 321.974 225.629 322.418C226.047 322.863 226.549 323.221 227.106 323.472C227.663 323.723 228.264 323.861 228.875 323.88Z" fill="#EE6C4D"/>
<path d="M21.4 546.004V475.504H55.3C63.3 475.504 69.4667 477.571 73.8 481.704C78.2 485.771 80.4 491.404 80.4 498.604C80.4 505.804 78.2 511.471 73.8 515.604C69.4667 519.671 63.3 521.704 55.3 521.704H39.8V546.004H21.4ZM39.8 507.604H52.1C59.3 507.604 62.9 504.604 62.9 498.604C62.9 492.604 59.3 489.604 52.1 489.604H39.8V507.604ZM87.2781 488.304V472.204H105.978V488.304H87.2781ZM87.7781 546.004V496.804H105.578V546.004H87.7781ZM134.303 547.104C127.903 547.104 123.17 545.371 120.103 541.904C117.103 538.371 115.603 533.004 115.603 525.804V496.804H133.403V526.304C133.403 531.104 135.47 533.504 139.603 533.504C142.003 533.504 143.97 532.638 145.503 530.904C147.036 529.171 147.803 526.871 147.803 524.004V496.804H165.603V546.004H148.203V539.904C145.003 544.704 140.37 547.104 134.303 547.104ZM175.962 564.004V496.804H193.262V503.504C194.595 501.104 196.628 499.204 199.362 497.804C202.095 496.404 205.095 495.704 208.362 495.704C212.562 495.704 216.262 496.738 219.462 498.804C222.728 500.871 225.262 503.838 227.062 507.704C228.928 511.504 229.862 516.071 229.862 521.404C229.862 526.671 228.962 531.238 227.162 535.104C225.362 538.971 222.828 541.938 219.562 544.004C216.362 546.071 212.628 547.104 208.362 547.104C205.295 547.104 202.428 546.471 199.762 545.204C197.162 543.938 195.162 542.238 193.762 540.104V564.004H175.962ZM202.762 534.004C205.428 534.004 207.628 533.004 209.362 531.004C211.095 529.004 211.962 525.804 211.962 521.404C211.962 516.938 211.095 513.738 209.362 511.804C207.628 509.804 205.428 508.804 202.762 508.804C200.028 508.804 197.795 509.804 196.062 511.804C194.328 513.738 193.462 516.938 193.462 521.404C193.462 525.804 194.328 529.004 196.062 531.004C197.795 533.004 200.028 534.004 202.762 534.004ZM237.473 488.304V472.204H256.173V488.304H237.473ZM237.973 546.004V496.804H255.773V546.004H237.973ZM284.498 547.104C278.098 547.104 273.365 545.371 270.298 541.904C267.298 538.371 265.798 533.004 265.798 525.804V496.804H283.598V526.304C283.598 531.104 285.665 533.504 289.798 533.504C292.198 533.504 294.165 532.638 295.698 530.904C297.232 529.171 297.998 526.871 297.998 524.004V496.804H315.798V546.004H298.398V539.904C295.198 544.704 290.565 547.104 284.498 547.104ZM340.257 546.004L319.557 496.804H337.557L348.457 525.304L359.257 496.804H370.357L381.257 525.804L392.157 496.804H409.057L388.557 546.004H373.857L364.157 521.804L354.957 546.004H340.257ZM438.504 547.104C432.504 547.104 427.304 546.071 422.904 544.004C418.571 541.871 415.237 538.871 412.904 535.004C410.571 531.138 409.404 526.571 409.404 521.304C409.404 516.304 410.504 511.871 412.704 508.004C414.971 504.138 418.037 501.138 421.904 499.004C425.837 496.804 430.304 495.704 435.304 495.704C440.237 495.704 444.504 496.738 448.104 498.804C451.771 500.871 454.571 503.838 456.504 507.704C458.504 511.504 459.504 515.971 459.504 521.104V525.004H426.404C427.004 528.204 428.337 530.504 430.404 531.904C432.471 533.304 435.337 534.004 439.004 534.004C441.537 534.004 444.171 533.638 446.904 532.904C449.704 532.104 452.171 530.971 454.304 529.504L458.704 541.204C456.171 543.004 453.071 544.438 449.404 545.504C445.737 546.571 442.104 547.104 438.504 547.104ZM436.104 507.204C433.437 507.204 431.237 508.004 429.504 509.604C427.837 511.204 426.771 513.538 426.304 516.604H444.904C444.704 513.471 443.837 511.138 442.304 509.604C440.837 508.004 438.771 507.204 436.104 507.204ZM467.173 546.004V496.804H484.473V505.104C486.739 499.438 491.639 496.338 499.173 495.804L504.073 495.404L505.073 510.404L495.373 511.304C491.839 511.638 489.273 512.638 487.673 514.304C486.073 515.904 485.273 518.304 485.273 521.504V546.004H467.173Z" fill="#293241"/>
</svg>
