<svg width="183" height="183" viewBox="0 0 183 183" fill="none" xmlns="http://www.w3.org/2000/svg">
<path d="M55.7578 91.5C55.7578 95.4481 58.9582 98.6484 62.9062 98.6484H84.3516V120.094C84.3516 124.042 87.5519 127.242 91.5 127.242C95.4481 127.242 98.6484 124.042 98.6484 120.094V98.6484H120.094C124.042 98.6484 127.242 95.4481 127.242 91.5C127.242 87.5519 124.042 84.3516 120.094 84.3516H98.6484V62.9062C98.6484 58.9582 95.4481 55.7578 91.5 55.7578C87.5519 55.7578 84.3516 58.9582 84.3516 62.9062V84.3516H62.9062C58.9582 84.3516 55.7578 87.5519 55.7578 91.5Z" fill="white"/>
<path d="M57.3326 22.0886L66.5788 18.2585C70.2259 16.7473 71.9583 12.5658 70.4471 8.91834C68.936 5.27085 64.7548 3.53771 61.107 5.04996L51.8608 8.8801C48.2137 10.3913 46.4813 14.5728 47.9925 18.2202C49.4986 21.8556 53.6733 23.6034 57.3326 22.0886Z" fill="white"/>
<path d="M91.5 0C87.5519 0 84.3516 3.20036 84.3516 7.14844C84.3516 11.0965 87.5519 14.2969 91.5 14.2969C134.168 14.2969 168.703 48.8267 168.703 91.5C168.703 134.168 134.173 168.703 91.5 168.703C48.8317 168.703 14.2969 134.173 14.2969 91.5C14.2969 87.5519 11.0965 84.3516 7.14844 84.3516C3.20036 84.3516 0 87.5519 0 91.5C0 142.069 40.9237 183 91.5 183C142.069 183 183 142.076 183 91.5C183 40.9309 142.076 0 91.5 0Z" fill="white"/>
<path d="M33.371 40.4476L40.4476 33.371C43.2394 30.5792 43.2394 26.0528 40.4476 23.2613C37.6558 20.4699 33.1294 20.4695 30.3379 23.2613L23.2613 30.3379C20.4695 33.1298 20.4695 37.6561 23.2613 40.4476C26.0525 43.2387 30.5792 43.2394 33.371 40.4476Z" fill="white"/>
<path d="M8.91845 70.4475C12.5738 71.9615 16.751 70.218 18.2586 66.5791L22.0887 57.3326C23.5999 53.6851 21.8675 49.5036 18.2204 47.9924C14.5722 46.4816 10.3914 48.2137 8.88021 51.8608L5.05008 61.107C3.5389 64.7548 5.27132 68.9363 8.91845 70.4475Z" fill="white"/>
</svg>
