<svg width="64" height="64" viewBox="0 0 64 64" fill="none" xmlns="http://www.w3.org/2000/svg">
<path d="M19.5 32C19.5 33.3807 20.6193 34.5 22 34.5H29.5V42C29.5 43.3808 30.6193 44.5 32 44.5C33.3807 44.5 34.5 43.3808 34.5 42V34.5H42C43.3808 34.5 44.5 33.3807 44.5 32C44.5 30.6193 43.3808 29.5 42 29.5H34.5V22C34.5 20.6193 33.3807 19.5 32 19.5C30.6193 19.5 29.5 20.6193 29.5 22V29.5H22C20.6193 29.5 19.5 30.6193 19.5 32Z" fill="url(#paint0_linear)"/>
<path d="M20.0513 7.725L23.2849 6.3855C24.5604 5.857 25.1663 4.39462 24.6378 3.119C24.1093 1.84337 22.647 1.23724 21.3713 1.76612L18.1376 3.10562C16.8621 3.63412 16.2563 5.0965 16.7848 6.37212C17.3115 7.6435 18.7715 8.25475 20.0513 7.725Z" fill="url(#paint1_linear)"/>
<path d="M32 0C30.6192 0 29.5 1.11925 29.5 2.5C29.5 3.88075 30.6192 5 32 5C46.9222 5 59 17.076 59 32C59 46.9222 46.924 59 32 59C17.0778 59 5 46.924 5 32C5 30.6192 3.88075 29.5 2.5 29.5C1.11925 29.5 0 30.6192 0 32C0 49.6854 14.3121 64 32 64C49.6854 64 64 49.6879 64 32C64 14.3146 49.6879 0 32 0Z" fill="url(#paint2_linear)"/>
<path d="M11.6715 14.1456L14.1463 11.6707C15.1227 10.6944 15.1227 9.11136 14.1463 8.13511C13.17 7.15886 11.587 7.15874 10.6107 8.13511L8.13585 10.61C7.15947 11.5864 7.15947 13.1694 8.13585 14.1456C9.11197 15.1217 10.6951 15.122 11.6715 14.1456Z" fill="url(#paint3_linear)"/>
<path d="M3.11932 24.6374C4.3977 25.1669 5.85857 24.5571 6.38582 23.2845L7.72533 20.0508C8.25383 18.7751 7.64795 17.3128 6.37245 16.7843C5.09657 16.2559 3.63445 16.8616 3.10595 18.1371L1.76645 21.3708C1.23795 22.6465 1.84382 24.1089 3.11932 24.6374Z" fill="url(#paint4_linear)"/>
<defs>
<linearGradient id="paint0_linear" x1="32" y1="19.5" x2="32" y2="44.5" gradientUnits="userSpaceOnUse">
<stop stop-color="#98C1D9"/>
<stop offset="1" stop-color="#3D5A80"/>
</linearGradient>
<linearGradient id="paint1_linear" x1="20.7113" y1="1.57494" x2="20.7113" y2="7.91597" gradientUnits="userSpaceOnUse">
<stop stop-color="#98C1D9"/>
<stop offset="1" stop-color="#3D5A80"/>
</linearGradient>
<linearGradient id="paint2_linear" x1="32" y1="0" x2="32" y2="64" gradientUnits="userSpaceOnUse">
<stop stop-color="#98C1D9"/>
<stop offset="1" stop-color="#3D5A80"/>
</linearGradient>
<linearGradient id="paint3_linear" x1="11.1411" y1="7.40288" x2="11.1411" y2="14.8778" gradientUnits="userSpaceOnUse">
<stop stop-color="#98C1D9"/>
<stop offset="1" stop-color="#3D5A80"/>
</linearGradient>
<linearGradient id="paint4_linear" x1="4.74589" y1="16.5933" x2="4.74589" y2="24.8284" gradientUnits="userSpaceOnUse">
<stop stop-color="#98C1D9"/>
<stop offset="1" stop-color="#3D5A80"/>
</linearGradient>
</defs>
</svg>
