<svg width="281" height="282" viewBox="0 0 281 282" fill="none" xmlns="http://www.w3.org/2000/svg">
<path d="M140.48 280.96C218.065 280.96 280.96 218.065 280.96 140.48C280.96 62.895 218.065 0 140.48 0C62.895 0 0 62.895 0 140.48C0 218.065 62.895 280.96 140.48 280.96Z" fill="#F5F5F5"/>
<path d="M140.612 281.515C168.061 281.56 194.917 273.523 217.829 258.406C212.653 230.116 192.952 228.504 192.952 228.504H84.3151C84.3151 228.504 65.7251 230.03 59.919 256.054C83.5417 272.671 111.73 281.565 140.612 281.515Z" fill="#EE6C4D"/>
<path opacity="0.1" d="M117.235 193.997H160.682V228.755C160.682 234.515 158.394 240.039 154.322 244.113C150.25 248.186 144.727 250.476 138.967 250.478C133.205 250.478 127.68 248.19 123.606 244.116C119.532 240.042 117.243 234.516 117.243 228.755V193.997H117.235Z" fill="black"/>
<path d="M118.613 192.385H159.321C159.686 192.385 160.036 192.53 160.295 192.788C160.553 193.047 160.698 193.397 160.698 193.762V227.143C160.699 229.997 160.137 232.823 159.045 235.459C157.953 238.096 156.352 240.492 154.334 242.509C152.316 244.527 149.92 246.127 147.283 247.219C144.647 248.31 141.821 248.872 138.967 248.87C133.205 248.87 127.68 246.582 123.606 242.508C119.532 238.434 117.243 232.909 117.243 227.147V193.762C117.243 193.398 117.387 193.049 117.644 192.791C117.901 192.533 118.249 192.387 118.613 192.385Z" fill="#98C1D9"/>
<path opacity="0.1" d="M117.313 210.403C131.316 215.635 146.729 215.677 160.76 210.523V205.177H117.313V210.403Z" fill="black"/>
<path d="M139.172 213.356C173.577 213.356 201.468 183.256 201.468 146.126C201.468 108.996 173.577 78.8956 139.172 78.8956C104.767 78.8956 76.8766 108.996 76.8766 146.126C76.8766 183.256 104.767 213.356 139.172 213.356Z" fill="#98C1D9"/>
<path d="M76.8191 161.841C80.0189 161.841 82.6128 156.978 82.6128 150.978C82.6128 144.978 80.0189 140.114 76.8191 140.114C73.6193 140.114 71.0254 144.978 71.0254 150.978C71.0254 156.978 73.6193 161.841 76.8191 161.841Z" fill="#98C1D9"/>
<path d="M201.386 161.841C204.586 161.841 207.18 156.978 207.18 150.978C207.18 144.978 204.586 140.114 201.386 140.114C198.186 140.114 195.592 144.978 195.592 150.978C195.592 156.978 198.186 161.841 201.386 161.841Z" fill="#98C1D9"/>
</svg>
