<svg width="109" height="109" viewBox="0 0 109 109" fill="none" xmlns="http://www.w3.org/2000/svg">
<path d="M106.212 2.86947C105.453 2.10852 104.551 1.50482 103.558 1.09292C102.565 0.681009 101.501 0.468986 100.425 0.468986C99.3505 0.468986 98.286 0.681009 97.293 1.09292C96.3 1.50482 95.398 2.10852 94.6386 2.86947L54.4999 42.9261L14.3611 2.78738C13.6012 2.02744 12.699 1.42462 11.7061 1.01334C10.7132 0.602061 9.64898 0.390381 8.57426 0.390381C7.49954 0.390381 6.43534 0.602061 5.44242 1.01334C4.44951 1.42462 3.54732 2.02744 2.78738 2.78738C2.02744 3.54732 1.42462 4.44951 1.01334 5.44242C0.602061 6.43534 0.390381 7.49954 0.390381 8.57426C0.390381 9.64898 0.602061 10.7132 1.01334 11.7061C1.42462 12.699 2.02744 13.6012 2.78738 14.3611L42.9261 54.4999L2.78738 94.6386C2.02744 95.3986 1.42462 96.3008 1.01334 97.2937C0.602061 98.2866 0.390381 99.3508 0.390381 100.425C0.390381 101.5 0.602061 102.564 1.01334 103.557C1.42462 104.55 2.02744 105.452 2.78738 106.212C3.54732 106.972 4.44951 107.575 5.44242 107.986C6.43534 108.398 7.49954 108.609 8.57426 108.609C9.64898 108.609 10.7132 108.398 11.7061 107.986C12.699 107.575 13.6012 106.972 14.3611 106.212L54.4999 66.0736L94.6386 106.212C95.3986 106.972 96.3008 107.575 97.2937 107.986C98.2866 108.398 99.3508 108.609 100.425 108.609C101.5 108.609 102.564 108.398 103.557 107.986C104.55 107.575 105.452 106.972 106.212 106.212C106.972 105.452 107.575 104.55 107.986 103.557C108.398 102.564 108.609 101.5 108.609 100.425C108.609 99.3508 108.398 98.2866 107.986 97.2937C107.575 96.3008 106.972 95.3986 106.212 94.6386L66.0736 54.4999L106.212 14.3611C109.332 11.242 109.332 5.98863 106.212 2.86947V2.86947Z" fill="white"/>
</svg>
