<svg width="155" height="148" viewBox="0 0 155 148" fill="none" xmlns="http://www.w3.org/2000/svg">
<path d="M83.0678 9.28258L95.7613 40.892C98.0499 46.5912 103.399 50.4775 109.526 50.8929L143.511 53.1973C148.907 53.5632 151.103 60.3203 146.952 63.7879L120.813 85.6279C116.099 89.5658 114.056 95.8538 115.555 101.81L123.865 134.843C125.184 140.088 119.437 144.264 114.856 141.389L86.0073 123.277C80.8058 120.012 74.1942 120.012 68.9927 123.277L40.1439 141.389C35.5634 144.264 29.8155 140.088 31.135 134.843L39.4453 101.81C40.9437 95.8538 38.9005 89.5658 34.1875 85.628L8.04765 63.7879C3.89728 60.3203 6.09279 53.5632 11.4888 53.1973L45.4736 50.8929C51.6011 50.4775 56.9501 46.5912 59.2387 40.892L71.9322 9.28258C73.9476 4.26377 81.0524 4.26376 83.0678 9.28258Z" stroke="#E2DD52" stroke-width="10"/>
</svg>
