<svg width="155" height="148" viewBox="0 0 155 148" fill="none" xmlns="http://www.w3.org/2000/svg">
<path d="M67.2923 7.41934C70.9872 -1.78182 84.0128 -1.78182 87.7077 7.41934L100.401 39.0287C101.975 42.9469 105.652 45.6187 109.865 45.9044L143.849 48.2087C153.742 48.8795 157.767 61.2675 150.158 67.6249L124.018 89.465C120.778 92.1722 119.373 96.4953 120.404 100.59L128.714 133.624C131.133 143.239 120.595 150.895 112.198 145.623L83.3488 127.512C79.7728 125.267 75.2272 125.267 71.6512 127.512L42.8025 145.623C34.4049 150.895 23.867 143.239 26.2861 133.624L34.5964 100.59C35.6265 96.4952 34.2219 92.1722 30.9816 89.465L4.84181 67.6249C-2.76722 61.2675 1.25789 48.8795 11.1505 48.2087L45.1353 45.9044C49.348 45.6187 53.0254 42.947 54.5989 39.0287L67.2923 7.41934Z" fill="white"/>
</svg>
