<svg width="200" height="178" viewBox="0 0 200 178" fill="none" xmlns="http://www.w3.org/2000/svg">
<path d="M100 178C97.1527 178 94.4077 176.968 92.2684 175.094C84.1888 168.026 76.3992 161.385 69.5267 155.526L69.4916 155.496C49.3423 138.319 31.9427 123.485 19.8364 108.873C6.30341 92.5367 0 77.0481 0 60.1276C0 43.6879 5.63507 28.5213 15.8661 17.4196C26.2192 6.18662 40.4251 0 55.8716 0C67.4164 0 77.9892 3.65122 87.2955 10.8514C91.9922 14.4858 96.2494 18.9338 100 24.1222C103.752 18.9338 108.008 14.4858 112.706 10.8514C122.012 3.65122 132.585 0 144.13 0C159.575 0 173.782 6.18662 184.135 17.4196C194.366 28.5213 200 43.6879 200 60.1276C200 77.0481 193.698 92.5367 180.165 108.871C168.059 123.485 150.661 138.317 130.515 155.493C123.63 161.36 115.828 168.013 107.73 175.097C105.592 176.968 102.846 178 100 178ZM55.8716 11.7199C43.7363 11.7199 32.5882 16.5648 24.4781 25.3632C16.2476 34.2943 11.7142 46.6401 11.7142 60.1276C11.7142 74.3585 17.0013 87.0859 28.8559 101.395C40.3137 115.226 57.3563 129.754 77.0889 146.577L77.1255 146.607C84.024 152.489 91.8442 159.156 99.9832 166.275C108.171 159.142 116.003 152.464 122.916 146.574C142.647 129.751 159.688 115.226 171.146 101.395C182.999 87.0859 188.286 74.3585 188.286 60.1276C188.286 46.6401 183.752 34.2943 175.522 25.3632C167.413 16.5648 156.264 11.7199 144.13 11.7199C135.24 11.7199 127.078 14.5469 119.872 20.1214C113.449 25.0914 108.975 31.3742 106.352 35.7704C105.003 38.031 102.629 39.3804 100 39.3804C97.3709 39.3804 94.9966 38.031 93.6478 35.7704C91.0263 31.3742 86.5524 25.0914 80.1285 20.1214C72.9218 14.5469 64.7598 11.7199 55.8716 11.7199Z" fill="white"/>
</svg>
