<svg width="201" height="178" viewBox="0 0 201 178" fill="none" xmlns="http://www.w3.org/2000/svg">
<path d="M185.055 17.4196C174.65 6.18662 160.373 0 144.851 0C133.248 0 122.622 3.65122 113.268 10.8514C108.548 14.4858 104.271 18.9323 100.5 24.1222C96.7306 18.9338 92.4521 14.4858 87.7305 10.8514C78.3776 3.65122 67.7519 0 56.1494 0C40.6272 0 26.3487 6.18662 15.9439 17.4196C5.66325 28.5213 0 43.6879 0 60.1276C0 77.0481 6.33492 92.5367 19.9356 108.873C32.1025 123.485 49.5891 138.319 69.839 155.496C76.7536 161.362 84.5914 168.011 92.7297 175.094C94.8797 176.968 97.6385 178 100.5 178C103.36 178 106.12 176.968 108.267 175.097C116.406 168.013 124.248 161.36 131.166 155.491C151.412 138.317 168.899 123.485 181.066 108.871C194.667 92.5367 201 77.0481 201 60.1261C201 43.6879 195.337 28.5213 185.055 17.4196Z" fill="white"/>
</svg>
