<svg width="149" height="99" viewBox="0 0 149 99" fill="none" xmlns="http://www.w3.org/2000/svg">
<path d="M8.83333 98.75H140.167C144.681 98.75 148.375 95.0562 148.375 90.5417C148.375 86.0271 144.681 82.3333 140.167 82.3333H8.83333C4.31875 82.3333 0.625 86.0271 0.625 90.5417C0.625 95.0562 4.31875 98.75 8.83333 98.75ZM8.83333 57.7083H140.167C144.681 57.7083 148.375 54.0146 148.375 49.5C148.375 44.9854 144.681 41.2917 140.167 41.2917H8.83333C4.31875 41.2917 0.625 44.9854 0.625 49.5C0.625 54.0146 4.31875 57.7083 8.83333 57.7083ZM0.625 8.45833C0.625 12.9729 4.31875 16.6667 8.83333 16.6667H140.167C144.681 16.6667 148.375 12.9729 148.375 8.45833C148.375 3.94375 144.681 0.25 140.167 0.25H8.83333C4.31875 0.25 0.625 3.94375 0.625 8.45833Z" fill="white"/>
</svg>
