<svg width="180" height="158" viewBox="0 0 180 158" fill="none" xmlns="http://www.w3.org/2000/svg">
<path d="M179.878 7.16696C180.756 3.0822 176.751 -0.362028 172.845 1.12858L3.39304 65.8154C1.35365 66.5941 0.00471691 68.5488 0.000498205 70.7317C-0.0037205 72.9148 1.33748 74.8748 3.37406 75.6612L50.9762 94.046V151.952C50.9762 154.395 52.6535 156.518 55.03 157.083C57.3908 157.644 59.8524 156.521 60.9591 154.325L80.6468 115.257L128.692 150.913C131.615 153.083 135.816 151.703 136.879 148.217C181.738 1.14019 179.798 7.53645 179.878 7.16696ZM138.049 25.7004L55.5022 84.4878L19.9849 70.7707L138.049 25.7004ZM61.523 93.1478L133.476 41.9056C71.5614 107.222 74.795 103.784 74.525 104.147C74.1239 104.687 75.2229 102.584 61.523 129.77V93.1478ZM128.972 137.988L86.6813 106.602L163.149 25.9325L128.972 137.988Z" fill="white"/>
</svg>
